<svg viewBox="0 0 256 54" xmlns="http://www.w3.org/2000/svg" fill-rule="evenodd" clip-rule="evenodd" stroke-linejoin="round" stroke-miterlimit="1.414"><path d="M228.375.184h-4.968l-.183-.183h-1.62l-.183.183h-5.527l-.183-.183h-1.682l-.183.183H52.156l-.184-.183h-1.65l-.183.183h-5.525L44.43.001h-1.652l-.182.183H26.627C12.045.184.183 12.046.183 26.626c0 12.635 8.914 23.214 20.781 25.815l.207.245v.001l.002-.001c.487.101 1.027.2 1.524.274l.19-.189c1.224.175 2.466.295 3.74.295h1.783l.181.183h1.772l.181-.183h161.593l.181.183 1.66.001.183-.184h5.528l.181.184 1.643-.001.181-.183h26.681c14.58 0 26.443-11.861 26.443-26.44 0-14.58-11.863-26.442-26.443-26.442" fill="#ffed00" fill-rule="nonzero"/><path d="M50.323 13.857V.002h-5.894v40.865h5.894V16.925h5.401v23.942h5.894v-27.01H50.323zM205.15 37.798h-5.279v-20.87h5.279v20.87zm-11.171-23.942v39.393h5.892V40.867h11.172V13.856h-17.064zM221.605 13.857V.002h-5.895v40.865h5.895V16.925h5.401v23.942h5.892v-27.01h-11.293z" fill-rule="nonzero"/><path d="M51.973.001H214.03v5.326H51.973zM30.362 47.921h161.955v5.326H30.362z"/><path d="M21.17 47.217c-9.121-2.41-15.845-10.714-15.845-20.592 0-11.763 9.537-21.299 21.3-21.299h16.154V0H26.625C11.921 0 0 11.921 0 26.625 0 39.458 9.081 50.17 21.17 52.686v-5.469zM228.375.001h-5.15v5.326h5.15c11.764 0 21.301 9.537 21.301 21.299 0 11.763-9.537 21.3-21.301 21.3h-26.862v5.323h26.862c14.704 0 26.626-11.92 26.626-26.623 0-14.704-11.922-26.625-26.626-26.625M81.042 24.25h10.006V13.96h6.932v26.662h-6.932V29.626H81.042v10.996h-6.93V13.96h6.93v10.29z" fill-rule="nonzero"/><path d="M22.697 13.857v39.102c1.284.189 2.595.289 3.928.289h1.967v-12.38h11.172V13.857H22.697zM33.87 37.798h-5.28V16.927h5.28v20.871zM115.395 13.218c-8.154 0-14.763 6.301-14.763 14.073s6.609 14.073 14.763 14.073 14.763-6.301 14.763-14.073-6.609-14.073-14.763-14.073m0 21.427c-4.15 0-7.513-3.292-7.513-7.354s3.363-7.354 7.513-7.354c4.151 0 7.514 3.292 7.514 7.354s-3.363 7.354-7.514 7.354M175.562 13.96v16.302L162.761 13.96h-6.931v26.384l-8.124-10.591c3.327-.996 5.752-4.076 5.752-7.725a8.068 8.068 0 0 0-8.068-8.068h-11.519v26.662h6.93V30.368l6.614 10.254h15.346V24.32l12.801 16.302h6.896V13.96h-6.896zm-33.313 11.917h-1.448V19.3h1.448c1.816 0 4.105.682 4.105 3.288 0 2.607-2.289 3.289-4.105 3.289" fill-rule="nonzero"/></svg>