<svg width="38" height="33" viewBox="0 0 38 33" fill="none" xmlns="http://www.w3.org/2000/svg">
<path d="M28.3605 2.17615C28.963 1.82677 28.5807 1.00554 30.5228 1.00001C31.887 0.996517 32.4442 2.14328 32.4651 3.46284C32.502 5.7779 32.0454 5.05557 30.9991 5.45063C29.9362 5.8515 30.9332 7.50066 31.2192 7.99986C32.3842 10.0359 31.8786 7.24815 32.428 6.80684C32.978 6.36583 34.6894 6.60379 35.8619 8.22095C36.6788 9.34706 36.3205 12.6489 36.8264 17.3186C37.1658 20.4578 34.554 17.9626 32.2447 13.6426C31.6239 12.481 29.2134 7.82299 29.2766 5.70459C29.3131 4.47957 30.7795 4.85659 31.0356 3.86721C31.3126 2.79899 29.6044 2.81499 29.2766 2.80161C28.3971 2.76466 27.0001 3.25048 25.0223 3.64786C24.4103 3.77092 27.6733 2.57615 28.3605 2.17615Z" stroke="#F19100" stroke-width="0.581818" stroke-miterlimit="10"/>
<rect x="33.3008" y="15.8684" width="0.580153" height="9.01818" rx="0.290076" fill="#F19100"/>
<path d="M4.96873 14.7229C5.51176 14.8238 5.95006 15.0216 6.28364 15.3164C6.62497 15.6034 6.79564 16.0456 6.79564 16.6429C6.79564 17.4885 6.49309 18.0897 5.888 18.4466C5.28291 18.8034 4.44121 18.9818 3.36291 18.9818H0.849455V10.9295H3.04873C4.1503 10.9295 4.992 11.0924 5.57382 11.4182C6.15564 11.744 6.44655 12.2676 6.44655 12.9891C6.44655 13.4623 6.30303 13.8463 6.016 14.1411C5.73673 14.4281 5.38764 14.6221 4.96873 14.7229ZM2.56 12.1629V14.1993H3.39782C3.81673 14.1993 4.13867 14.1139 4.36364 13.9433C4.58861 13.7649 4.70109 13.4972 4.70109 13.1404C4.70109 12.7835 4.58085 12.5314 4.34036 12.384C4.09988 12.2366 3.72364 12.1629 3.21164 12.1629H2.56ZM3.37455 17.7135C3.90982 17.7135 4.31709 17.6359 4.59636 17.4807C4.87564 17.3178 5.01527 17.0153 5.01527 16.5731C5.01527 15.7663 4.51879 15.3629 3.52582 15.3629H2.56V17.7135H3.37455ZM10.1845 10.9295V17.6087H13.3729L13.1867 18.9818H8.474V10.9295H10.1845ZM20.5805 16.3287C20.5805 16.8795 20.4641 17.3683 20.2314 17.7949C19.9986 18.2216 19.6495 18.559 19.1841 18.8073C18.7264 19.0478 18.1678 19.168 17.5085 19.168C16.5155 19.168 15.7552 18.912 15.2277 18.4C14.708 17.8803 14.4481 17.1898 14.4481 16.3287V10.9295H16.1586V16.2473C16.1586 16.7903 16.2672 17.1976 16.4845 17.4691C16.7017 17.7329 17.043 17.8647 17.5085 17.8647C17.9739 17.8647 18.3152 17.7329 18.5325 17.4691C18.7574 17.1976 18.8699 16.7903 18.8699 16.2473V10.9295H20.5805V16.3287ZM27.4494 10.9295L27.2632 12.1746H24.3541V14.2691H26.8908V15.5026H24.3541V17.7251H27.4726V18.9818H22.6435V10.9295H27.4494Z" fill="white"/>
<path d="M4.02618 21.7978C4.53042 21.7978 4.96873 21.8715 5.34109 22.0189C5.71345 22.1585 6.07806 22.3757 6.43491 22.6705L5.58545 23.6596C5.12 23.2795 4.63127 23.0894 4.11927 23.0894C3.54521 23.0894 3.08752 23.326 2.74618 23.7993C2.41261 24.2647 2.24582 24.9978 2.24582 25.9985C2.24582 26.976 2.41261 27.7013 2.74618 28.1745C3.08752 28.64 3.54909 28.8727 4.13091 28.8727C4.43345 28.8727 4.70885 28.8184 4.95709 28.7098C5.20533 28.5934 5.46521 28.4305 5.73673 28.2211L6.528 29.2102C6.24097 29.505 5.88412 29.7493 5.45745 29.9433C5.03855 30.1294 4.57309 30.2225 4.06109 30.2225C3.33964 30.2225 2.70739 30.0596 2.16436 29.7338C1.62133 29.408 1.19855 28.9309 0.896 28.3025C0.593455 27.6664 0.442182 26.8984 0.442182 25.9985C0.442182 25.1219 0.597333 24.3694 0.907636 23.7411C1.21794 23.105 1.64461 22.624 2.18764 22.2982C2.73067 21.9646 3.34352 21.7978 4.02618 21.7978ZM12.2215 30.0363L11.7677 28.2327H9.24264L8.78882 30.0363H7.00845L9.487 21.984H11.5699L14.0368 30.0363H12.2215ZM9.56845 26.9643H11.4419L10.4994 23.2523L9.56845 26.9643ZM17.8295 26.8829H16.9568V30.0363H15.2463V21.984H17.7597C18.838 21.984 19.6487 22.1857 20.1917 22.5891C20.7348 22.9847 21.0063 23.5859 21.0063 24.3927C21.0063 24.9202 20.8744 25.3546 20.6106 25.696C20.3546 26.0373 19.9551 26.3282 19.4121 26.5687L21.495 30.0363H19.5517L17.8295 26.8829ZM16.9568 25.6727H17.8528C18.3105 25.6727 18.6557 25.5719 18.8885 25.3702C19.1212 25.1607 19.2375 24.8349 19.2375 24.3927C19.2375 23.9816 19.1134 23.6829 18.8652 23.4967C18.6247 23.3028 18.2446 23.2058 17.7248 23.2058H16.9568V25.6727ZM26.086 21.7978C26.629 21.7978 27.11 21.8831 27.5289 22.0538C27.9556 22.2167 28.3512 22.4533 28.7158 22.7636L27.8198 23.6945C27.5328 23.4773 27.2613 23.3183 27.0053 23.2174C26.757 23.1166 26.4739 23.0662 26.1558 23.0662C25.543 23.0662 25.0465 23.3105 24.6664 23.7993C24.294 24.2802 24.1078 25.0172 24.1078 26.0102C24.1078 27.0574 24.2513 27.8099 24.5384 28.2676C24.8332 28.7176 25.287 28.9425 25.8998 28.9425C26.342 28.9425 26.7415 28.8456 27.0984 28.6516V26.6851H25.9696L25.7951 25.44H28.7624V29.408C28.3435 29.664 27.8896 29.8657 27.4009 30.0131C26.9199 30.1527 26.4312 30.2225 25.9347 30.2225C24.7478 30.2225 23.8479 29.8657 23.2351 29.152C22.6222 28.4383 22.3158 27.3871 22.3158 25.9985C22.3158 25.1219 22.4826 24.3656 22.8162 23.7294C23.1498 23.0933 23.5997 22.6123 24.166 22.2865C24.7401 21.9607 25.3801 21.7978 26.086 21.7978ZM33.8198 21.7978C34.5568 21.7978 35.1929 21.9646 35.7282 22.2982C36.2635 22.624 36.6746 23.1011 36.9616 23.7294C37.2487 24.3578 37.3922 25.118 37.3922 26.0102C37.3922 26.8868 37.2487 27.6431 36.9616 28.2793C36.6746 28.9076 36.2635 29.3886 35.7282 29.7222C35.1929 30.0557 34.5568 30.2225 33.8198 30.2225C33.0828 30.2225 32.4428 30.0596 31.8998 29.7338C31.3645 29.4002 30.9534 28.9193 30.6664 28.2909C30.3793 27.6548 30.2358 26.8945 30.2358 26.0102C30.2358 25.1413 30.3793 24.3927 30.6664 23.7643C30.9611 23.1282 31.3762 22.6434 31.9115 22.3098C32.4545 21.9685 33.0906 21.7978 33.8198 21.7978ZM33.8198 23.0778C33.2302 23.0778 32.7842 23.3105 32.4816 23.776C32.1868 24.2414 32.0395 24.9862 32.0395 26.0102C32.0395 27.0342 32.1907 27.7789 32.4933 28.2443C32.7958 28.7098 33.238 28.9425 33.8198 28.9425C34.4094 28.9425 34.8516 28.7137 35.1464 28.256C35.4411 27.7905 35.5885 27.0419 35.5885 26.0102C35.5885 24.9784 35.4411 24.2337 35.1464 23.776C34.8516 23.3105 34.4094 23.0778 33.8198 23.0778Z" fill="white"/>
</svg>
