<svg width="512" height="512" viewBox="0 0 512 512" xmlns="http://www.w3.org/2000/svg">
  <path class="favicon__background" d="M504.96 0H7C3.13401 0 0 3.13399 0 6.99999V504.66C0 508.526 3.13401 511.66 7 511.66H504.96C508.826 511.66 511.96 508.526 511.96 504.66V7C511.96 3.13401 508.826 0 504.96 0Z" fill="#FF1100"/>
  <path class="favicon__name" d="M103.39 126.712C103.39 136.695 96.1215 142.211 84.2423 142.211H53.73V87.9688H84.3185C95.7976 87.9688 101.199 93.7797 101.199 101.677C101.199 107.64 97.96 110.803 94.2353 112.67V113.299C98.3697 114.718 103.399 118.519 103.399 126.712H103.39ZM66.3617 109.279H82.6419C86.3667 109.279 88.3005 107.116 88.3005 103.763C88.3005 100.6 86.2143 98.1713 82.861 98.1713H66.3522V109.269L66.3617 109.279ZM90.1295 125.854C90.1295 122.349 87.9671 119.481 83.6136 119.481H66.3617V131.961H83.7184C88.3005 131.961 90.1295 129.093 90.1295 125.854Z" fill="white"/>
  <path class="favicon__name" d="M114.231 157.557L114.155 148.43C115.793 148.726 117.251 148.878 118.327 148.878C122.5 148.878 126.224 147.392 127.939 144.067L128.873 142.2H124.919L106.924 103.457H120.49L132.483 130.016H133.188L144.257 103.457H157.746L139.675 145.925C137.961 149.878 134.236 158.481 121.385 158.481C118.67 158.481 116.393 158.071 114.231 157.547V157.557Z" fill="white"/>
  <path class="favicon__name" d="M159.642 129.093H171.978C172.912 132.522 176.151 133.903 181.438 133.903C185.867 133.903 188.258 133.122 188.258 131.036C188.258 129.245 186.467 128.388 181.514 127.53L173.693 126.302C166.32 125.073 161.214 122.053 161.214 115.232C161.214 106.925 169.263 102.677 179.504 102.677C192.621 102.677 198.651 108.116 199.737 115.308H187.182C186.477 113.003 184.391 111.736 179.58 111.736C175.627 111.736 173.617 112.593 173.617 114.451C173.617 116.309 175.779 116.756 179.99 117.547L188.115 118.776C196.946 120.338 200.671 124.663 200.671 130.846C200.671 139.229 192.364 142.915 181.447 142.915C167.472 142.991 160.356 137.885 159.651 129.093H159.642Z" fill="white"/>
  <path class="favicon__name" d="M214.037 130.106V113.302H204.349V103.471H208.149C212.96 103.471 214.97 101.604 214.97 97.3648V92.5541H226.592V103.471H238.776V113.302H226.592V127.868C226.592 130.106 226.964 133.117 232.479 133.117C233.708 133.117 235.423 132.964 236.909 132.669V142.062C234.823 142.624 231.66 142.995 228.526 142.995C217.495 142.995 214.037 136.956 214.037 130.106V130.106Z" fill="white"/>
  <path class="favicon__name" d="M244.882 103.458H256.361L257.438 109.05H258.219C261.458 104.725 264.478 102.677 271.784 102.677H275.509V115.232C273.718 114.937 271.708 114.784 269.993 114.784C261.391 114.784 257.438 119.967 257.438 127.121V142.248H244.882V103.467V103.458Z" fill="white"/>
  <path class="favicon__name" d="M279.167 122.834C279.167 110.574 289.484 102.677 303.792 102.677C318.1 102.677 328.341 110.574 328.341 122.834C328.341 135.094 318.091 142.991 303.792 142.991C289.493 142.991 279.167 135.018 279.167 122.834ZM315.824 122.834C315.824 117.471 311.651 113.517 303.83 113.517C296.009 113.517 291.722 117.471 291.722 122.834C291.722 128.197 296.085 132.151 303.83 132.151C311.575 132.151 315.824 128.092 315.824 122.834Z" fill="white"/>
  <path class="favicon__name" d="M335.229 103.458H346.708L347.784 108.116H348.565C351.356 105.096 355.462 102.677 362.426 102.677C374.495 102.677 381.43 109.574 381.43 120.672V142.21H368.875V123.548C368.875 116.956 364.855 113.565 358.482 113.565C352.109 113.565 347.794 116.804 347.794 123.701V142.22H335.238V103.477L335.229 103.458Z" fill="white"/>
  <path class="favicon__name" d="M388.432 92.3235C388.432 88.151 391.938 84.9502 395.882 84.9502C399.826 84.9502 403.074 88.1129 403.074 92.3235C403.074 96.1244 399.835 99.5919 395.882 99.5919C391.928 99.5919 388.432 96.1244 388.432 92.3235ZM389.509 103.46H402.064V142.203H389.509V103.46Z" fill="white"/>
  <path class="favicon__name" d="M408.551 123.053C408.551 110.421 419.097 102.677 432.652 102.677C443.979 102.677 454.41 107.554 455.677 118.547H443.122C442.045 115.527 438.016 113.517 432.652 113.517C425.908 113.517 421.173 117.09 421.173 123.053C421.173 129.017 425.679 132.103 432.795 132.103C437.977 132.103 441.845 130.874 443.188 128.083H455.82C454.515 137.476 445.684 142.944 432.795 142.944C418.153 142.982 408.542 135.008 408.542 123.053H408.551Z" fill="white"/>
</svg>
